<?xml version="1.0" encoding="UTF-8"?>
<svg xmlns="http://www.w3.org/2000/svg" xmlns:xlink="http://www.w3.org/1999/xlink" width="24px" height="24px" viewBox="0 0 24 24" version="1.1">
<g id="surface1">
<path style="fill:none;stroke-width:2;stroke-linecap:round;stroke-linejoin:round;stroke:rgb(0%,0%,0%);stroke-opacity:1;stroke-miterlimit:4;" d="M 6 7 L 6 18 C 6 19.105469 6.894531 20 8 20 L 16 20 C 17.105469 20 18 19.105469 18 18 L 18 7 M 6 7 L 5 7 M 6 7 L 8 7 M 18 7 L 19 7 M 18 7 L 16 7 M 10 11 L 10 16 M 14 11 L 14 16 M 8 7 L 8 5 C 8 3.894531 8.894531 3 10 3 L 14 3 C 15.105469 3 16 3.894531 16 5 L 16 7 M 8 7 L 16 7 "/>
</g>
</svg>
